<?xml version="1.0" encoding="UTF-8"?>
<svg width="240px" height="60px" viewBox="0 0 240 60" version="1.1" xmlns="http://www.w3.org/2000/svg" xmlns:xlink="http://www.w3.org/1999/xlink">
    <!-- Generator: Sketch 41.2 (35397) - http://www.bohemiancoding.com/sketch -->
    <title>logo</title>
    <desc>Created with Sketch.</desc>
    <defs></defs>
    <g id="Page-1" stroke="none" stroke-width="1" fill="none" fill-rule="evenodd">
        <g id="logo" fill="#000000">
            <g id="Group" transform="translate(55.000000, 52.000000)">
                <path d="M3.9,3.9 C4.1,3.9 4.3,4 4.5,4.1 C4.7,4.2 4.8,4.3 5,4.4 C5.1,4.5 5.2,4.7 5.3,4.9 C5.4,5.1 5.4,5.3 5.4,5.5 C5.4,5.7 5.4,5.8 5.3,6 C5.3,6.2 5.2,6.4 5.1,6.5 C5,6.7 4.8,6.8 4.6,7 C4.4,7.1 4.2,7.3 3.9,7.4 C3.7,7.5 3.5,7.5 3.2,7.5 L2.3,7.5 L0.5,7.5 L0.5,0.3 L2.3,0.3 L2.7,0.3 L3.1,0.3 L3.4,0.3 C3.5,0.3 3.6,0.3 3.7,0.4 C3.9,0.5 4.1,0.5 4.3,0.6 C4.5,0.7 4.6,0.8 4.8,1 C4.9,1.1 5,1.3 5.1,1.5 C5,1.8 5,2 5,2.3 C5,2.5 5,2.6 4.9,2.8 C4.9,3 4.8,3.1 4.7,3.2 C4.6,3.3 4.5,3.5 4.3,3.6 C4.1,3.7 4.1,3.8 3.9,3.9 L3.9,3.9 Z M2.6,3.5 L3,3.5 C3.1,3.5 3.2,3.5 3.3,3.4 C3.6,3.3 3.8,3.2 3.9,3 C4,2.8 4.1,2.6 4.1,2.3 C4.1,2 4,1.8 3.9,1.7 C3.8,1.5 3.6,1.4 3.3,1.3 C3.2,1.3 3,1.2 2.8,1.2 L2.2,1.2 L1.2,1.2 L1.2,3.5 L2.6,3.5 Z M1.3,4.3 L1.3,6.8 L2.4,6.8 L3.1,6.8 C3.3,6.8 3.5,6.7 3.6,6.7 C3.8,6.6 3.9,6.6 4,6.5 L4.3,6.2 C4.4,6.1 4.4,6 4.4,5.9 L4.4,5.6 L4.4,5.2 C4.4,5.1 4.3,5 4.2,4.9 C4.1,4.8 4,4.7 3.9,4.7 C3.8,4.6 3.6,4.6 3.5,4.5 C3.4,4.5 3.3,4.5 3.1,4.4 L2.6,4.4 L1.3,4.4 L1.3,4.3 Z" id="Shape"></path>
                <path d="M10.2,6.9 C10.5,6.9 10.7,6.9 10.9,6.8 C11.1,6.7 11.3,6.7 11.4,6.5 C11.5,6.4 11.7,6.3 11.8,6.1 C11.9,5.9 12,5.8 12,5.6 C12,5.5 12.1,5.4 12.1,5.2 L12.1,4.8 L12.1,0.4 L13,0.4 L13,4.8 L13,5.3 C13,5.5 13,5.7 12.9,5.8 C12.8,6.1 12.7,6.3 12.6,6.5 C12.5,6.7 12.3,6.9 12.1,7.1 C11.9,7.3 11.6,7.4 11.3,7.5 C11,7.6 10.6,7.6 10.2,7.6 C9.8,7.6 9.5,7.6 9.2,7.5 C8.9,7.4 8.6,7.3 8.4,7.1 C8.2,6.9 8,6.8 7.9,6.6 C7.8,6.4 7.7,6.2 7.6,5.9 C7.5,5.7 7.5,5.5 7.5,5.3 L7.5,4.7 L7.5,0.3 L8.4,0.3 L8.4,4.7 L8.4,5.2 C8.4,5.4 8.5,5.5 8.5,5.7 C8.6,6 8.8,6.3 9.1,6.5 C9.4,6.8 9.8,6.9 10.2,6.9 Z" id="Shape"></path>
                <polygon id="Shape" points="15.4 7.6 15.4 0.4 16.3 0.4 16.3 7.6"></polygon>
                <polygon id="Shape" points="19.5 0.4 19.5 6.8 23 6.8 23 7.6 18.6 7.6 18.6 0.4"></polygon>
                <path d="M30.7,3.9 C30.7,4.3 30.6,4.7 30.5,5.1 C30.4,5.5 30.2,5.8 30,6.1 C29.8,6.4 29.5,6.6 29.2,6.9 C28.9,7.2 28.5,7.3 28.1,7.4 C27.9,7.5 27.6,7.5 27.3,7.5 L26.4,7.5 L24.8,7.5 L24.8,0.3 L26.4,0.3 L27.3,0.3 C27.6,0.3 27.8,0.4 28.1,0.4 C28.5,0.5 28.9,0.7 29.2,0.9 C29.5,1.1 29.8,1.4 30,1.6 C30.2,1.9 30.4,2.2 30.5,2.6 C30.6,3.1 30.7,3.5 30.7,3.9 Z M29.8,3.9 C29.8,3.2 29.6,2.7 29.3,2.2 C29,1.8 28.6,1.5 28,1.3 C27.8,1.2 27.5,1.2 27.3,1.2 L26.4,1.2 L25.7,1.2 L25.7,6.8 L26.4,6.8 L27.3,6.8 C27.6,6.8 27.8,6.7 28,6.7 C28.6,6.5 29,6.2 29.3,5.8 C29.6,5.2 29.8,4.6 29.8,3.9 Z" id="Shape"></path>
                <polygon id="Shape" points="37.1 4.7 37.1 7.6 36.2 7.6 36.2 4.7 33.6 0.4 34.6 0.4 36.7 3.9 36.7 3.9 38.8 0.4 39.8 0.4"></polygon>
                <path d="M47.6,4 C47.6,4.5 47.5,5 47.4,5.5 C47.2,6 47,6.3 46.7,6.7 C46.4,7 46.1,7.3 45.7,7.5 C45.3,7.7 44.8,7.8 44.3,7.8 C43.8,7.8 43.3,7.7 42.9,7.5 C42.5,7.3 42.1,7.1 41.8,6.7 C41.5,6.4 41.3,6 41.1,5.5 C40.9,5 40.9,4.5 40.9,4 C40.9,3.5 41,3 41.1,2.5 C41.2,2 41.5,1.7 41.8,1.3 C42.1,1 42.4,0.7 42.8,0.5 C43.2,0.3 43.7,0.2 44.2,0.2 C44.7,0.2 45.2,0.3 45.6,0.5 C46,0.7 46.4,0.9 46.6,1.3 C46.9,1.6 47.1,2 47.3,2.5 C47.5,2.9 47.6,3.4 47.6,4 Z M46.7,4 C46.7,3.5 46.6,3.1 46.5,2.7 C46.4,2.3 46.2,2 46,1.8 C45.8,1.6 45.5,1.4 45.2,1.2 C44.9,1.1 44.6,1 44.2,1 C43.9,1 43.5,1.1 43.2,1.2 C42.9,1.3 42.6,1.5 42.4,1.8 C42.2,2 42,2.4 41.9,2.7 C41.8,3.1 41.7,3.5 41.7,4 C41.7,4.5 41.8,4.9 41.9,5.3 C42,5.7 42.2,6 42.4,6.2 C42.6,6.4 42.9,6.6 43.2,6.8 C43.5,6.9 43.8,7 44.2,7 C44.5,7 44.9,6.9 45.2,6.8 C45.5,6.7 45.8,6.5 46,6.2 C46.2,6 46.4,5.6 46.5,5.3 C46.6,4.9 46.7,4.5 46.7,4 Z" id="Shape"></path>
                <path d="M52.5,6.9 C52.8,6.9 53,6.9 53.2,6.8 C53.4,6.7 53.6,6.7 53.7,6.5 C53.8,6.4 54,6.3 54.1,6.1 C54.2,5.9 54.3,5.8 54.3,5.6 C54.3,5.5 54.4,5.4 54.4,5.2 L54.4,4.8 L54.4,0.4 L55.3,0.4 L55.3,4.8 L55.3,5.3 C55.3,5.5 55.3,5.7 55.2,5.8 C55.1,6.1 55,6.3 54.9,6.5 C54.8,6.7 54.6,6.9 54.4,7.1 C54.2,7.3 53.9,7.4 53.6,7.5 C53.3,7.6 52.9,7.6 52.5,7.6 C52.1,7.6 51.8,7.6 51.5,7.5 C51.2,7.4 50.9,7.3 50.7,7.1 C50.5,6.9 50.3,6.8 50.2,6.6 C50.1,6.4 50,6.2 49.9,5.9 C49.8,5.7 49.8,5.5 49.8,5.3 L49.8,4.7 L49.8,0.3 L50.7,0.3 L50.7,4.7 L50.7,5.2 C50.7,5.4 50.8,5.5 50.8,5.7 C50.9,6 51.1,6.3 51.4,6.5 C51.6,6.8 52,6.9 52.5,6.9 Z" id="Shape"></path>
                <path d="M58.5,4.6 L58.5,7.6 L57.6,7.6 L57.6,0.4 L59.5,0.4 L60.3,0.4 C60.5,0.4 60.7,0.5 60.9,0.5 C61.4,0.6 61.8,0.9 62,1.2 C62.2,1.5 62.4,1.9 62.4,2.4 C62.4,2.7 62.4,2.9 62.3,3.2 C62.2,3.4 62.1,3.6 61.9,3.8 C61.7,4 61.5,4.1 61.3,4.2 C61.1,4.3 60.8,4.4 60.5,4.4 L60.5,4.4 L62.6,7.5 L61.7,7.5 L59.5,4.5 L58.5,4.5 L58.5,4.6 Z M58.5,1.2 L58.5,3.8 L59.4,3.8 L60.1,3.8 C60.3,3.8 60.5,3.7 60.6,3.7 C60.9,3.6 61.1,3.5 61.3,3.3 C61.5,3.1 61.5,2.8 61.5,2.5 C61.5,2.2 61.4,1.9 61.3,1.8 C61.1,1.6 60.9,1.5 60.7,1.4 C60.6,1.4 60.4,1.3 60.2,1.3 L59.5,1.3 L58.5,1.3 L58.5,1.2 Z" id="Shape"></path>
                <path d="M73.4,4 C73.4,4.5 73.3,5 73.2,5.5 C73,6 72.8,6.3 72.5,6.7 C72.2,7 71.9,7.3 71.5,7.5 C71.1,7.7 70.6,7.8 70.1,7.8 C69.6,7.8 69.1,7.7 68.7,7.5 C68.3,7.3 67.9,7.1 67.6,6.7 C67.3,6.4 67.1,6 66.9,5.5 C66.7,5 66.7,4.5 66.7,4 C66.7,3.5 66.8,3 66.9,2.5 C67.1,2 67.3,1.7 67.6,1.3 C67.9,1 68.2,0.7 68.6,0.5 C69,0.3 69.5,0.2 70,0.2 C70.5,0.2 71,0.3 71.4,0.5 C71.8,0.7 72.2,0.9 72.4,1.3 C72.7,1.6 72.9,2 73.1,2.5 C73.3,2.9 73.4,3.4 73.4,4 Z M72.5,4 C72.5,3.5 72.4,3.1 72.3,2.7 C72.2,2.3 72,2 71.8,1.8 C71.6,1.6 71.3,1.4 71,1.2 C70.7,1.1 70.4,1 70,1 C69.6,1 69.3,1.1 69,1.2 C68.7,1.3 68.4,1.5 68.2,1.8 C68,2 67.8,2.4 67.7,2.7 C67.6,3.1 67.5,3.5 67.5,4 C67.5,4.5 67.6,4.9 67.7,5.3 C67.8,5.7 68,6 68.2,6.2 C68.4,6.4 68.7,6.6 69,6.8 C69.3,6.9 69.6,7 70,7 C70.3,7 70.7,6.9 71,6.8 C71.3,6.7 71.6,6.5 71.8,6.2 C72,6 72.2,5.6 72.3,5.3 C72.4,4.9 72.5,4.5 72.5,4 Z" id="Shape"></path>
                <path d="M79.4,1.6 C79.3,1.9 79.2,2.5 79,3.3 L77.9,7.6 L77,7.6 L74.8,0.4 L75.7,0.4 L76.9,4.6 C77.1,5.3 77.3,5.9 77.4,6.4 L77.4,6.4 C77.5,6.1 77.5,5.7 77.6,5.4 C77.7,5.1 77.8,4.8 77.8,4.6 L78.9,0.4 L79.8,0.4 L80.9,4.6 C81.2,5.6 81.3,6.2 81.4,6.4 L81.4,6.4 C81.5,5.9 81.7,5.3 81.9,4.6 L83.1,0.4 L84,0.4 L81.8,7.6 L80.9,7.6 L79.8,3.3 C79.6,2.5 79.5,1.9 79.4,1.6 L79.4,1.6 Z" id="Shape"></path>
                <path d="M89.4,4.4 C89.8,5 90.3,5.7 90.7,6.3 L90.7,6.3 C90.7,5.6 90.6,4.9 90.6,4.2 L90.6,0.4 L91.5,0.4 L91.5,7.6 L90.6,7.6 L87.8,3.6 C87.3,2.9 86.9,2.3 86.5,1.7 L86.5,1.7 C86.5,2.4 86.6,3.1 86.6,4 L86.6,7.7 L85.7,7.7 L85.7,0.5 L86.6,0.5 L89.4,4.4 Z" id="Shape"></path>
                <path d="M100,1.6 C99.9,1.9 99.8,2.5 99.6,3.3 L98.5,7.6 L97.6,7.6 L95.4,0.4 L96.3,0.4 L97.5,4.6 C97.7,5.3 97.9,5.9 98,6.4 L98,6.4 C98.1,6.1 98.1,5.7 98.2,5.4 C98.3,5.1 98.4,4.8 98.4,4.6 L99.5,0.4 L100.4,0.4 L101.5,4.6 C101.8,5.6 101.9,6.2 102,6.4 L102,6.4 C102.1,5.9 102.3,5.3 102.5,4.6 L103.7,0.4 L104.6,0.4 L102.4,7.6 L101.5,7.6 L100.4,3.3 C100.2,2.5 100.1,1.9 100,1.6 L100,1.6 Z" id="Shape"></path>
                <path d="M105.1,7.6 L108,0.4 L108.8,0.4 L111.7,7.6 L110.8,7.6 L109.9,5.4 L106.9,5.4 L106,7.6 L105.1,7.6 Z M108.4,1.5 C108.1,2.4 107.8,3.2 107.5,3.9 L107.2,4.6 L109.6,4.6 L109.3,3.9 C109,3.2 108.7,2.4 108.4,1.5 L108.4,1.5 Z" id="Shape"></path>
                <polygon id="Shape" points="115.3 7.6 114.4 7.6 114.4 1.2 112 1.2 112 0.4 117.7 0.4 117.7 1.2 115.3 1.2 115.3 7.6"></polygon>
                <path d="M122.6,1 C122.2,1 121.8,1.1 121.5,1.2 C121.2,1.3 120.8,1.5 120.6,1.8 C120.3,2.1 120.1,2.4 120,2.7 C119.9,3.1 119.8,3.5 119.8,4 C119.8,4.5 119.9,4.9 120,5.3 C120.1,5.7 120.3,6 120.6,6.2 C120.9,6.4 121.2,6.6 121.5,6.7 C121.9,6.8 122.3,6.9 122.7,6.9 L123.1,6.9 C123.2,6.9 123.4,6.9 123.5,6.8 C123.6,6.8 123.8,6.8 123.9,6.7 C124,6.7 124.1,6.6 124.2,6.6 L124.2,7.4 C124,7.5 123.7,7.5 123.5,7.6 C123.2,7.6 122.9,7.7 122.6,7.7 C122,7.7 121.5,7.6 121,7.5 C120.5,7.3 120.2,7.1 119.8,6.8 C119.5,6.5 119.3,6.1 119.1,5.7 C118.9,5.3 118.9,4.7 118.9,4.2 C118.9,3.6 119,3.1 119.2,2.7 C119.4,2.2 119.6,1.8 119.9,1.5 C120.2,1.2 120.6,0.9 121.1,0.7 C121.6,0.5 122.1,0.4 122.6,0.4 L123,0.4 C123.1,0.4 123.3,0.4 123.4,0.5 C123.5,0.5 123.7,0.6 123.8,0.6 C123.9,0.6 124,0.7 124.1,0.7 L124.1,1.5 C123.9,1.4 123.6,1.4 123.4,1.3 C123.1,1.1 122.9,1 122.6,1 Z" id="Shape"></path>
                <polygon id="Shape" points="127 3.5 130.8 3.5 130.8 0.4 131.7 0.4 131.7 7.6 130.8 7.6 130.8 4.3 127 4.3 127 7.6 126.1 7.6 126.1 0.4 127 0.4"></polygon>
            </g>
            <g id="Group">
                <path d="M2,0.8 L28.2,0.8 L28.2,1.4 L7,33.4 L14.8,33.4 C19.4,33.4 22.7,32.7 24.8,31.4 C26.5,30.4 27.8,28.8 28.8,26.7 C29.2,25.8 29.5,24.8 29.8,23.6 L30.4,23.6 L29.6,34.1 L0.6,34.1 L0.6,33.5 L22,1.4 L15,1.4 C12.5,1.4 10.5,1.6 9,2 C7.5,2.4 6.2,3 5.1,3.9 C4.2,4.7 3.4,5.5 2.9,6.4 C2.4,7.3 2.1,8.4 1.9,9.7 L1.3,9.7 L2,0.8 Z" id="Shape"></path>
                <path d="M64.6,1.1 L79.6,1.1 L79.6,1.7 C78.2,1.7 77.2,1.8 76.7,2 C76.3,2.2 75.9,2.5 75.6,2.9 C75.3,3.3 75.2,3.8 75.2,4.4 C75.2,5.1 75.5,6 76,7.2 L76.6,8.7 L84,26.9 L89.2,11.2 C89.9,9.2 90.2,7.7 90.2,6.7 C90.2,6 90.1,5.3 89.8,4.6 C89.5,3.9 89.2,3.3 88.8,2.9 C88.4,2.5 87.9,2.2 87.4,2 C86.9,1.8 86.2,1.7 85.4,1.7 L85.4,1.1 L100.8,1.1 L100.8,1.7 C99.9,1.7 99.2,1.7 98.8,1.8 C98.4,1.9 98,2 97.6,2.2 C97.1,2.5 96.7,2.9 96.4,3.4 C96.1,3.9 96,4.5 96,5.1 C96,5.7 96.2,6.7 96.7,8.1 L102.6,27.1 L109.2,11 C110.2,8.5 110.7,6.6 110.7,5.3 C110.7,3.9 110.2,2.9 109.3,2.3 C108.7,1.9 107.9,1.8 106.7,1.8 L106.7,1.2 L117.8,1.2 L117.8,1.8 C116.7,1.9 115.9,2.1 115.4,2.4 C114.9,2.7 114.3,3.2 113.8,4 C113,5.1 112,7.1 110.8,10.1 L101,33.9 L100,33.9 L91.5,8.4 L82.9,33.9 L81.8,33.9 L71.1,8.2 L70.4,6.5 C69.9,5.3 69.5,4.5 69.2,3.9 C68.9,3.4 68.5,3 68,2.7 C67.6,2.4 67.2,2.3 66.8,2.1 C66.4,2 65.7,1.9 64.9,1.8 L64.9,1.1 L64.6,1.1 Z" id="Shape"></path>
                <path d="M142.1,33.8 L126.4,33.8 L126.4,33.2 C127.8,33.1 128.8,32.8 129.4,32.5 C130.4,31.9 130.9,31 130.9,29.9 C130.9,29.2 130.7,28.4 130.2,27.3 L129.8,26.3 L127.5,20.7 L117,20.7 L115.8,24 L115.2,25.5 C114.5,27.3 114.1,28.6 114.1,29.6 C114.1,30.2 114.2,30.7 114.5,31.3 C114.8,31.8 115.1,32.2 115.6,32.5 C116.2,32.9 117,33.2 118,33.3 L118,33.9 L107.3,33.9 L107.3,33.3 C108.1,33.3 108.9,33 109.5,32.7 C110.1,32.3 110.8,31.7 111.4,30.9 C111.9,30.2 112.4,29.4 112.9,28.4 C113.4,27.4 114,25.8 114.8,23.8 L123.6,1.2 L125,1.2 L135.4,26.3 C136.2,28.2 136.8,29.6 137.3,30.4 C137.8,31.2 138.3,31.8 138.8,32.2 C139.2,32.5 139.6,32.7 140.1,32.9 C140.6,33.1 141.3,33.2 142.3,33.3 L142.3,33.8 L142.1,33.8 Z M127,19.7 L122,7.3 L117.3,19.7 L127,19.7 Z" id="Shape"></path>
                <path d="M149.8,1.9 C148.8,1.9 147.7,1.9 146.6,2 C144.1,2.1 142.3,2.4 141.1,2.9 C139.9,3.4 138.9,4.2 138.1,5.5 C137.4,6.6 136.8,8.1 136.4,10 L135.8,10 L136.2,1.2 L168.6,1.2 L169,10 L168.4,10 C168,7.8 167.3,6.1 166.4,5 C165.5,3.9 164.1,3 162.4,2.5 C160.9,2.1 158.4,1.9 154.9,1.9 L154.9,26.3 C154.9,27.9 155,29.1 155.2,29.9 C155.4,30.7 155.7,31.3 156.2,31.9 C156.6,32.4 157.2,32.7 157.7,32.9 C158.3,33.1 159,33.2 159.9,33.3 L159.9,33.9 L144.6,33.9 L144.6,33.3 C145.5,33.3 146.3,33.1 146.8,32.9 C147.4,32.7 147.9,32.4 148.3,31.9 C148.8,31.4 149.1,30.7 149.3,30 C149.5,29.2 149.6,28 149.6,26.4 L149.6,1.9 L149.8,1.9 Z" id="Shape"></path>
                <path d="M199.2,1 L199.5,11.7 L198.9,11.7 C198.7,11.2 198.6,10.9 198.5,10.6 C197.9,9.1 197.5,7.9 197.1,7.2 C196.5,5.9 195.6,4.6 194.4,3.5 C193.5,2.7 192.6,2 191.6,1.7 C190.6,1.3 189.6,1.1 188.4,1.1 C186.6,1.1 185,1.5 183.7,2.3 C182.5,3 181.5,4 180.4,5.3 C179.4,6.6 178.6,8 177.9,9.7 C177,12 176.5,14.6 176.5,17.6 C176.5,20.1 176.8,22.4 177.4,24.4 C178,26.4 178.9,28.1 180.1,29.4 C182.3,31.9 185.2,33.2 188.9,33.2 C190.7,33.2 192.4,32.9 193.8,32.3 C195.3,31.7 196.4,30.8 197.2,29.6 C198.1,28.3 198.8,26.5 199.2,24.2 L199.7,24.3 C199.4,26.8 198.7,28.8 197.6,30.3 C196.6,31.7 195.2,32.8 193.4,33.6 C191.6,34.3 189.5,34.7 187.2,34.7 C185,34.7 182.9,34.4 180.9,33.7 C177.7,32.6 175.2,30.7 173.4,28 C171.6,25.2 170.7,22 170.7,18.2 C170.7,15.3 171.2,12.6 172.3,10.1 C173.4,7.6 174.8,5.7 176.7,4.2 C178.2,3.1 179.9,2.1 181.9,1.5 C183.9,0.8 185.9,0.5 188,0.5 C189.9,0.5 192,0.9 194.1,1.6 L196.1,2.2 C196.5,2.3 196.8,2.4 197.1,2.4 C197.5,2.4 197.8,2.2 198.1,1.9 C198.2,1.7 198.3,1.5 198.5,1.1 L199.2,1.1 L199.2,1 Z" id="Shape"></path>
                <path d="M212.1,16.3 L229.1,16.3 L229.1,8.6 C229.1,7 229,5.7 228.8,5 C228.6,4.2 228.3,3.6 227.8,3.1 C227.4,2.6 226.8,2.3 226.3,2.1 C225.7,1.9 225,1.8 224.1,1.7 L224.1,1.1 L239.4,1.1 L239.4,1.7 C238.5,1.7 237.8,1.9 237.2,2.1 C236.6,2.3 236.1,2.6 235.7,3.1 C235.2,3.6 234.9,4.3 234.7,5.1 C234.5,5.9 234.4,7.1 234.4,8.7 L234.4,26.3 C234.4,27.9 234.5,29.1 234.7,29.9 C234.9,30.7 235.2,31.3 235.7,31.9 C236.1,32.3 236.7,32.7 237.2,32.9 C237.8,33.1 238.5,33.2 239.4,33.3 L239.4,33.9 L224,33.9 L224,33.3 C224.9,33.3 225.7,33.1 226.2,32.9 C226.8,32.7 227.3,32.4 227.7,31.9 C228.2,31.4 228.5,30.7 228.7,30 C228.9,29.2 229,28 229,26.4 L229,17.6 L212,17.6 L212,26.4 C212,28 212.1,29.2 212.3,30 C212.5,30.8 212.8,31.4 213.3,32 C213.7,32.4 214.2,32.8 214.8,33 C215.4,33.2 216.1,33.3 217,33.4 L217,34 L201.7,34 L201.7,33.4 C202.6,33.4 203.4,33.2 203.9,33 C204.5,32.8 205,32.5 205.4,32 C205.9,31.5 206.3,30.8 206.4,30.1 C206.6,29.3 206.7,28.1 206.7,26.5 L206.7,8.7 C206.7,7.1 206.6,5.8 206.4,5.1 C206.2,4.3 205.9,3.7 205.4,3.2 C205,2.7 204.5,2.4 203.9,2.2 C203.3,2 202.6,1.9 201.7,1.8 L201.7,1.2 L217,1.2 L217,1.8 C216.1,1.8 215.4,2 214.8,2.2 C214.2,2.4 213.7,2.7 213.3,3.2 C212.8,3.7 212.5,4.4 212.3,5.2 C212.1,6 212,7.2 212,8.8 L212,16.3 L212.1,16.3 Z" id="Shape"></path>
                <g transform="translate(30.000000, 1.000000)" id="Shape">
                    <path d="M18.5,33.6 C18.3,32.6 18.2,31.6 18.2,30.5 C16.2,32.5 13.7,33.6 11,33.6 C9,33.6 7.3,33.1 6.1,32.1 C4.9,31.1 4.3,29.7 4.3,27.9 L4.3,19.4 L4.3,17.5 C4.3,16.4 4.2,15.6 4.1,15.1 C4,14.6 3.7,14.2 3.4,13.8 C2.9,13.4 2.1,13 0.9,12.8 L0.9,12.3 L8.1,12.3 L8.1,24.7 C8.1,26.4 8.2,27.7 8.3,28.6 C8.4,29.4 8.6,30.1 9,30.7 C9.4,31.3 9.9,31.7 10.5,32 C11.2,32.3 11.9,32.5 12.7,32.5 C13.6,32.5 14.5,32.3 15.3,32 C16.1,31.6 16.7,31.2 17.2,30.5 C17.7,29.9 18,29.1 18.1,28.3 C18.3,27.5 18.3,26.1 18.3,24.2 L18.3,19.4 L18.3,17.6 C18.3,16.5 18.2,15.7 18.1,15.2 C18,14.7 17.7,14.3 17.4,13.9 C16.9,13.5 16.1,13.1 14.9,12.9 L14.9,12.4 L22.1,12.4 L22.1,25.7 C22.1,27.4 22.1,28.6 22.2,29.2 C22.3,29.8 22.5,30.4 22.7,30.9 C23,31.4 23.3,31.7 23.7,31.9 C24.1,32.1 24.7,32.2 25.4,32.3 L25.4,32.8 L18.5,33.6 Z"></path>
                    <path d="M1.1,0.1 L10.6,0.1 L10.6,0.3 C9.9,0.4 9.4,0.4 9.1,0.5 C8.6,0.6 8.3,0.9 8.3,1.2 C8.3,1.4 8.4,1.6 8.5,1.9 C8.7,2.2 9,2.6 9.4,3.1 L13.3,7.7 L17.3,2.9 C17.9,2.2 18.2,1.7 18.2,1.3 C18.2,0.9 17.9,0.7 17.4,0.5 C17.1,0.4 16.7,0.3 16,0.3 L16,0.1 L22.8,0.1 L22.8,0.3 C21.9,0.4 21.2,0.6 20.6,0.9 C19.9,1.2 19.1,1.9 18.2,3 L12.5,9.6 L11.2,9.6 L5.1,2.7 C4.2,1.6 3.5,1 3.1,0.8 C2.9,0.7 2.6,0.6 2.3,0.5 C2,0.4 1.6,0.4 1.1,0.4 L1.1,0.1 L1.1,0.1 Z"></path>
                </g>
            </g>
        </g>
    </g>
</svg>