<?xml version="1.0" encoding="utf-8"?>
<!-- Generator: Adobe Illustrator 19.0.0, SVG Export Plug-In . SVG Version: 6.00 Build 0)  -->
<svg version="1.1" id="圖層_1" xmlns="http://www.w3.org/2000/svg" xmlns:xlink="http://www.w3.org/1999/xlink" x="0px" y="0px"
	 viewBox="0 0 320 132" style="enable-background:new 0 0 320 132;" xml:space="preserve">
<g>
	<path d="M97.9,96.9c0.2,0,0.4,0.1,0.6,0.2c0.2,0.1,0.3,0.2,0.5,0.3c0.1,0.1,0.2,0.3,0.3,0.5c0.1,0.2,0.1,0.4,0.1,0.6
		c0,0.2,0,0.3-0.1,0.5c0,0.2-0.1,0.4-0.2,0.5c-0.1,0.2-0.3,0.3-0.5,0.5c-0.2,0.1-0.4,0.3-0.7,0.4c-0.2,0.1-0.4,0.1-0.7,0.1
		c-0.3,0-0.6,0-0.9,0h-1.8v-7.2h1.8c0.2,0,0.3,0,0.4,0c0.1,0,0.3,0,0.4,0c0.1,0,0.2,0,0.3,0c0.1,0,0.2,0,0.3,0.1
		c0.2,0.1,0.4,0.1,0.6,0.2c0.2,0.1,0.3,0.2,0.5,0.4c0.1,0.1,0.2,0.3,0.3,0.5C99,94.8,99,95,99,95.3c0,0.2,0,0.3-0.1,0.5
		c0,0.2-0.1,0.3-0.2,0.4c-0.1,0.1-0.2,0.3-0.4,0.4S98.1,96.8,97.9,96.9L97.9,96.9z M96.6,96.5c0.2,0,0.3,0,0.4,0
		c0.1,0,0.2,0,0.3-0.1c0.3-0.1,0.5-0.2,0.6-0.4s0.2-0.4,0.2-0.7c0-0.3-0.1-0.5-0.2-0.6c-0.1-0.2-0.3-0.3-0.6-0.4
		c-0.1,0-0.3-0.1-0.5-0.1s-0.4,0-0.6,0h-1v2.3H96.6z M95.3,97.3v2.5h1.1c0.3,0,0.5,0,0.7,0c0.2,0,0.4-0.1,0.5-0.1
		c0.2-0.1,0.3-0.1,0.4-0.2c0.1-0.1,0.2-0.2,0.3-0.3c0.1-0.1,0.1-0.2,0.1-0.3c0-0.1,0-0.2,0-0.3c0-0.1,0-0.3,0-0.4
		c0-0.1-0.1-0.2-0.2-0.3c-0.1-0.1-0.2-0.2-0.3-0.2c-0.1-0.1-0.3-0.1-0.4-0.2c-0.1,0-0.2,0-0.4-0.1c-0.1,0-0.3,0-0.5,0H95.3z"/>
	<path d="M104.2,99.9c0.3,0,0.5,0,0.7-0.1c0.2-0.1,0.4-0.1,0.5-0.3c0.1-0.1,0.3-0.2,0.4-0.4c0.1-0.2,0.2-0.3,0.2-0.5
		c0-0.1,0.1-0.2,0.1-0.4c0-0.1,0-0.3,0-0.4v-4.4h0.9v4.4c0,0.2,0,0.3,0,0.5c0,0.2,0,0.4-0.1,0.5c-0.1,0.3-0.2,0.5-0.3,0.7
		c-0.1,0.2-0.3,0.4-0.5,0.6s-0.5,0.3-0.8,0.4c-0.3,0.1-0.7,0.1-1.1,0.1c-0.4,0-0.7,0-1-0.1c-0.3-0.1-0.6-0.2-0.8-0.4
		c-0.2-0.2-0.4-0.3-0.5-0.5c-0.1-0.2-0.2-0.4-0.3-0.7c-0.1-0.2-0.1-0.4-0.1-0.6c0-0.2,0-0.4,0-0.6v-4.4h0.9v4.4c0,0.2,0,0.3,0,0.5
		c0,0.2,0.1,0.3,0.1,0.5c0.1,0.3,0.3,0.6,0.6,0.8C103.4,99.8,103.8,99.9,104.2,99.9z"/>
	<path d="M109.4,100.6v-7.2h0.9v7.2H109.4z"/>
	<path d="M113.5,93.4v6.4h3.5v0.8h-4.4v-7.2H113.5z"/>
	<path d="M124.7,96.9c0,0.4-0.1,0.8-0.2,1.2c-0.1,0.4-0.3,0.7-0.5,1c-0.2,0.3-0.5,0.5-0.8,0.8s-0.7,0.4-1.1,0.5
		c-0.2,0.1-0.5,0.1-0.8,0.1c-0.3,0-0.6,0-0.9,0h-1.6v-7.2h1.6c0.3,0,0.6,0,0.9,0c0.3,0,0.5,0.1,0.8,0.1c0.4,0.1,0.8,0.3,1.1,0.5
		c0.3,0.2,0.6,0.5,0.8,0.7c0.2,0.3,0.4,0.6,0.5,1C124.6,96.1,124.7,96.5,124.7,96.9z M123.8,96.9c0-0.7-0.2-1.2-0.5-1.7
		c-0.3-0.4-0.7-0.7-1.3-0.9c-0.2-0.1-0.5-0.1-0.7-0.1c-0.3,0-0.6,0-0.9,0h-0.7v5.6h0.7c0.3,0,0.6,0,0.9,0c0.3,0,0.5-0.1,0.7-0.1
		c0.6-0.2,1-0.5,1.3-0.9C123.6,98.2,123.8,97.6,123.8,96.9z"/>
	<path d="M131.1,97.7v2.9h-0.9v-2.9l-2.6-4.3h1l2.1,3.5h0l2.1-3.5h1L131.1,97.7z"/>
	<path d="M141.6,97c0,0.5-0.1,1-0.2,1.5c-0.2,0.5-0.4,0.8-0.7,1.2c-0.3,0.3-0.6,0.6-1,0.8c-0.4,0.2-0.9,0.3-1.4,0.3
		c-0.5,0-1-0.1-1.4-0.3c-0.4-0.2-0.8-0.4-1.1-0.8c-0.3-0.3-0.5-0.7-0.7-1.2s-0.2-1-0.2-1.5c0-0.5,0.1-1,0.2-1.5s0.4-0.8,0.7-1.2
		c0.3-0.3,0.6-0.6,1-0.8c0.4-0.2,0.9-0.3,1.4-0.3c0.5,0,1,0.1,1.4,0.3c0.4,0.2,0.8,0.4,1,0.8c0.3,0.3,0.5,0.7,0.7,1.2
		C141.5,95.9,141.6,96.4,141.6,97z M140.7,97c0-0.5-0.1-0.9-0.2-1.3c-0.1-0.4-0.3-0.7-0.5-0.9c-0.2-0.2-0.5-0.4-0.8-0.6
		c-0.3-0.1-0.6-0.2-1-0.2c-0.3,0-0.7,0.1-1,0.2c-0.3,0.1-0.6,0.3-0.8,0.6c-0.2,0.2-0.4,0.6-0.5,0.9c-0.1,0.4-0.2,0.8-0.2,1.3
		s0.1,0.9,0.2,1.3c0.1,0.4,0.3,0.7,0.5,0.9c0.2,0.2,0.5,0.4,0.8,0.6c0.3,0.1,0.6,0.2,1,0.2c0.3,0,0.7-0.1,1-0.2
		c0.3-0.1,0.6-0.3,0.8-0.6c0.2-0.2,0.4-0.6,0.5-0.9C140.6,97.9,140.7,97.5,140.7,97z"/>
	<path d="M146.5,99.9c0.3,0,0.5,0,0.7-0.1c0.2-0.1,0.4-0.1,0.5-0.3c0.1-0.1,0.3-0.2,0.4-0.4c0.1-0.2,0.2-0.3,0.2-0.5
		c0-0.1,0.1-0.2,0.1-0.4c0-0.1,0-0.3,0-0.4v-4.4h0.9v4.4c0,0.2,0,0.3,0,0.5c0,0.2,0,0.4-0.1,0.5c-0.1,0.3-0.2,0.5-0.3,0.7
		c-0.1,0.2-0.3,0.4-0.5,0.6c-0.2,0.2-0.5,0.3-0.8,0.4c-0.3,0.1-0.7,0.1-1.1,0.1c-0.4,0-0.7,0-1-0.1c-0.3-0.1-0.6-0.2-0.8-0.4
		c-0.2-0.2-0.4-0.3-0.5-0.5c-0.1-0.2-0.2-0.4-0.3-0.7c-0.1-0.2-0.1-0.4-0.1-0.6c0-0.2,0-0.4,0-0.6v-4.4h0.9v4.4c0,0.2,0,0.3,0,0.5
		c0,0.2,0.1,0.3,0.1,0.5c0.1,0.3,0.3,0.6,0.6,0.8C145.6,99.8,146,99.9,146.5,99.9z"/>
	<path d="M152.5,97.6v3h-0.9v-7.2h1.9c0.3,0,0.6,0,0.8,0c0.2,0,0.4,0.1,0.6,0.1c0.5,0.1,0.9,0.4,1.1,0.7s0.4,0.7,0.4,1.2
		c0,0.3,0,0.5-0.1,0.8c-0.1,0.2-0.2,0.4-0.4,0.6c-0.2,0.2-0.4,0.3-0.6,0.4c-0.2,0.1-0.5,0.2-0.8,0.2v0l2.1,3.1h-0.9l-2.2-3H152.5z
		 M152.5,94.2v2.6h0.9c0.3,0,0.5,0,0.7,0c0.2,0,0.4-0.1,0.5-0.1c0.3-0.1,0.5-0.2,0.7-0.4c0.2-0.2,0.2-0.5,0.2-0.8
		c0-0.3-0.1-0.6-0.2-0.7c-0.2-0.2-0.4-0.3-0.6-0.4c-0.1,0-0.3-0.1-0.5-0.1s-0.4,0-0.7,0H152.5z"/>
	<path d="M167.4,97c0,0.5-0.1,1-0.2,1.5c-0.2,0.5-0.4,0.8-0.7,1.2c-0.3,0.3-0.6,0.6-1,0.8c-0.4,0.2-0.9,0.3-1.4,0.3
		c-0.5,0-1-0.1-1.4-0.3c-0.4-0.2-0.8-0.4-1.1-0.8c-0.3-0.3-0.5-0.7-0.7-1.2s-0.2-1-0.2-1.5c0-0.5,0.1-1,0.2-1.5
		c0.2-0.5,0.4-0.8,0.7-1.2c0.3-0.3,0.6-0.6,1-0.8c0.4-0.2,0.9-0.3,1.4-0.3c0.5,0,1,0.1,1.4,0.3c0.4,0.2,0.8,0.4,1,0.8
		c0.3,0.3,0.5,0.7,0.7,1.2C167.3,95.9,167.4,96.4,167.4,97z M166.5,97c0-0.5-0.1-0.9-0.2-1.3c-0.1-0.4-0.3-0.7-0.5-0.9
		c-0.2-0.2-0.5-0.4-0.8-0.6c-0.3-0.1-0.6-0.2-1-0.2s-0.7,0.1-1,0.2c-0.3,0.1-0.6,0.3-0.8,0.6c-0.2,0.2-0.4,0.6-0.5,0.9
		c-0.1,0.4-0.2,0.8-0.2,1.3s0.1,0.9,0.2,1.3c0.1,0.4,0.3,0.7,0.5,0.9c0.2,0.2,0.5,0.4,0.8,0.6c0.3,0.1,0.6,0.2,1,0.2
		c0.3,0,0.7-0.1,1-0.2c0.3-0.1,0.6-0.3,0.8-0.6c0.2-0.2,0.4-0.6,0.5-0.9C166.4,97.9,166.5,97.5,166.5,97z"/>
	<path d="M173.4,94.6c-0.1,0.3-0.2,0.9-0.4,1.7l-1.1,4.3H171l-2.2-7.2h0.9l1.2,4.2c0.2,0.7,0.4,1.3,0.5,1.8h0c0.1-0.3,0.1-0.7,0.2-1
		c0.1-0.3,0.2-0.6,0.2-0.8l1.1-4.2h0.9l1.1,4.2c0.3,1,0.4,1.6,0.5,1.8h0c0.1-0.5,0.3-1.1,0.5-1.8l1.2-4.2h0.9l-2.2,7.2h-0.9
		l-1.1-4.3C173.6,95.5,173.5,94.9,173.4,94.6L173.4,94.6z"/>
	<path d="M183.4,97.4c0.4,0.6,0.9,1.3,1.3,1.9h0c0-0.7-0.1-1.4-0.1-2.1v-3.8h0.9v7.2h-0.9l-2.8-4c-0.5-0.7-0.9-1.3-1.3-1.9h0
		c0,0.7,0.1,1.4,0.1,2.3v3.7h-0.9v-7.2h0.9L183.4,97.4z"/>
	<path d="M194,94.6c-0.1,0.3-0.2,0.9-0.4,1.7l-1.1,4.3h-0.9l-2.2-7.2h0.9l1.2,4.2c0.2,0.7,0.4,1.3,0.5,1.8h0c0.1-0.3,0.1-0.7,0.2-1
		c0.1-0.3,0.2-0.6,0.2-0.8l1.1-4.2h0.9l1.1,4.2c0.3,1,0.4,1.6,0.5,1.8h0c0.1-0.5,0.3-1.1,0.5-1.8l1.2-4.2h0.9l-2.2,7.2h-0.9
		l-1.1-4.3C194.2,95.5,194.1,94.9,194,94.6L194,94.6z"/>
	<path d="M199.1,100.6l2.9-7.2h0.8l2.9,7.2h-0.9l-0.9-2.2h-3l-0.9,2.2H199.1z M202.4,94.5c-0.3,0.9-0.6,1.7-0.9,2.4l-0.3,0.7h2.4
		l-0.3-0.7C203,96.2,202.7,95.4,202.4,94.5L202.4,94.5z"/>
	<path d="M209.3,100.6h-0.9v-6.4h-2.4v-0.8h5.7v0.8h-2.4V100.6z"/>
	<path d="M216.6,94c-0.4,0-0.8,0.1-1.1,0.2c-0.3,0.1-0.7,0.3-0.9,0.6c-0.3,0.3-0.5,0.6-0.6,0.9c-0.1,0.4-0.2,0.8-0.2,1.3
		c0,0.5,0.1,0.9,0.2,1.3c0.1,0.4,0.3,0.7,0.6,0.9c0.3,0.2,0.6,0.4,0.9,0.5c0.4,0.1,0.8,0.2,1.2,0.2c0.1,0,0.2,0,0.4,0
		c0.1,0,0.3,0,0.4-0.1c0.1,0,0.3,0,0.4-0.1c0.1,0,0.2-0.1,0.3-0.1v0.8c-0.2,0.1-0.5,0.1-0.7,0.2c-0.3,0-0.6,0.1-0.9,0.1
		c-0.6,0-1.1-0.1-1.6-0.2c-0.5-0.2-0.8-0.4-1.2-0.7c-0.3-0.3-0.5-0.7-0.7-1.1c-0.2-0.4-0.2-1-0.2-1.5c0-0.6,0.1-1.1,0.3-1.5
		c0.2-0.5,0.4-0.9,0.7-1.2c0.3-0.3,0.7-0.6,1.2-0.8c0.5-0.2,1-0.3,1.5-0.3c0.1,0,0.3,0,0.4,0c0.1,0,0.3,0,0.4,0.1
		c0.1,0,0.3,0.1,0.4,0.1c0.1,0,0.2,0.1,0.3,0.1v0.8c-0.2-0.1-0.5-0.1-0.7-0.2C217.1,94.1,216.9,94,216.6,94z"/>
	<path d="M221,96.5h3.8v-3.1h0.9v7.2h-0.9v-3.3H221v3.3h-0.9v-7.2h0.9V96.5z"/>
</g>
<g>
	<path d="M41,41.8h26.2v0.6L46,74.4h7.8c4.6,0,7.9-0.7,10-2c1.7-1,3-2.6,4-4.7c0.4-0.9,0.7-1.9,1-3.1l0.6,0l-0.8,10.5h-29v-0.6
		l21.4-32.1h-7c-2.5,0-4.5,0.2-6,0.6c-1.5,0.4-2.8,1-3.9,1.9c-0.9,0.8-1.7,1.6-2.2,2.5c-0.5,0.9-0.8,2-1,3.3l-0.6,0L41,41.8z"/>
	<path d="M103.6,42.1h15v0.6c-1.4,0-2.4,0.1-2.9,0.3c-0.4,0.2-0.8,0.5-1.1,0.9c-0.3,0.4-0.4,0.9-0.4,1.5c0,0.7,0.3,1.6,0.8,2.8
		l0.6,1.5l7.4,18.2l5.2-15.7c0.7-2,1-3.5,1-4.5c0-0.7-0.1-1.4-0.4-2.1c-0.3-0.7-0.6-1.3-1-1.7c-0.4-0.4-0.9-0.7-1.4-0.9
		c-0.5-0.2-1.2-0.3-2-0.3v-0.6h15.4v0.6c-0.9,0-1.6,0-2,0.1c-0.4,0.1-0.8,0.2-1.2,0.4c-0.5,0.3-0.9,0.7-1.2,1.2s-0.4,1.1-0.4,1.7
		c0,0.6,0.2,1.6,0.7,3l5.9,19l6.6-16.1c1-2.5,1.5-4.4,1.5-5.7c0-1.4-0.5-2.4-1.4-3c-0.6-0.4-1.4-0.5-2.6-0.5v-0.6h11.1v0.6
		c-1.1,0.1-1.9,0.3-2.4,0.6c-0.5,0.3-1.1,0.8-1.6,1.6c-0.8,1.1-1.8,3.1-3,6.1l-9.8,23.8h-1l-8.5-25.5l-8.6,25.5h-1.1l-10.7-25.7
		l-0.7-1.7c-0.5-1.2-0.9-2-1.2-2.6c-0.3-0.5-0.7-0.9-1.2-1.2c-0.4-0.3-0.8-0.4-1.2-0.6c-0.4-0.1-1.1-0.2-1.9-0.3V42.1z"/>
	<path d="M181.1,74.8h-15.7v-0.6c1.4-0.1,2.4-0.4,3-0.7c1-0.6,1.5-1.5,1.5-2.6c0-0.7-0.2-1.5-0.7-2.6l-0.4-1l-2.3-5.6h-10.5
		l-1.2,3.3l-0.6,1.5c-0.7,1.8-1.1,3.1-1.1,4.1c0,0.6,0.1,1.1,0.4,1.7c0.3,0.5,0.6,0.9,1.1,1.2c0.6,0.4,1.4,0.7,2.4,0.8v0.6h-10.7
		v-0.6c0.8,0,1.6-0.3,2.2-0.6c0.6-0.4,1.3-1,1.9-1.8c0.5-0.7,1-1.5,1.5-2.5c0.5-1,1.1-2.6,1.9-4.6l8.8-22.6h1.4l10.4,25.1
		c0.8,1.9,1.4,3.3,1.9,4.1c0.5,0.8,1,1.4,1.5,1.8c0.4,0.3,0.8,0.5,1.3,0.7c0.5,0.2,1.2,0.3,2.2,0.4V74.8z M166,60.7l-5-12.4
		l-4.7,12.4H166z"/>
	<path d="M188.8,42.9c-1,0-2.1,0-3.2,0.1c-2.5,0.1-4.3,0.4-5.5,0.9c-1.2,0.5-2.2,1.3-3,2.6c-0.7,1.1-1.3,2.6-1.7,4.5l-0.6,0l0.4-8.8
		h32.4l0.4,8.8l-0.6,0c-0.4-2.2-1.1-3.9-2-5c-0.9-1.1-2.3-2-4-2.5c-1.5-0.4-4-0.6-7.5-0.6v24.4c0,1.6,0.1,2.8,0.3,3.6
		c0.2,0.8,0.5,1.4,1,2c0.4,0.5,1,0.8,1.5,1c0.6,0.2,1.3,0.3,2.2,0.4v0.6h-15.3v-0.6c0.9,0,1.7-0.2,2.2-0.4c0.6-0.2,1.1-0.5,1.5-1
		c0.5-0.5,0.8-1.2,1-1.9c0.2-0.8,0.3-2,0.3-3.6V42.9z"/>
	<path d="M238.2,42l0.3,10.7h-0.6c-0.2-0.5-0.3-0.8-0.4-1.1c-0.6-1.5-1-2.7-1.4-3.4c-0.6-1.3-1.5-2.6-2.7-3.7
		c-0.9-0.8-1.8-1.5-2.8-1.8c-1-0.4-2-0.6-3.2-0.6c-1.8,0-3.4,0.4-4.7,1.2c-1.2,0.7-2.2,1.7-3.3,3c-1,1.3-1.8,2.7-2.5,4.4
		c-0.9,2.3-1.4,4.9-1.4,7.9c0,2.5,0.3,4.8,0.9,6.8c0.6,2,1.5,3.7,2.7,5c2.2,2.5,5.1,3.8,8.8,3.8c1.8,0,3.5-0.3,4.9-0.9
		c1.5-0.6,2.6-1.5,3.4-2.7c0.9-1.3,1.6-3.1,2-5.4l0.5,0.1c-0.3,2.5-1,4.5-2.1,6c-1,1.4-2.4,2.5-4.2,3.3c-1.8,0.7-3.9,1.1-6.2,1.1
		c-2.2,0-4.3-0.3-6.3-1c-3.2-1.1-5.7-3-7.5-5.7c-1.8-2.8-2.7-6-2.7-9.8c0-2.9,0.5-5.6,1.6-8.1c1.1-2.5,2.5-4.4,4.4-5.9
		c1.5-1.1,3.2-2.1,5.2-2.7c2-0.7,4-1,6.1-1c1.9,0,4,0.4,6.1,1.1l2,0.6c0.4,0.1,0.7,0.2,1,0.2c0.4,0,0.7-0.2,1-0.5
		c0.1-0.2,0.2-0.4,0.4-0.8H238.2z"/>
	<path d="M251.1,57.3h17v-7.7c0-1.6-0.1-2.9-0.3-3.6c-0.2-0.8-0.5-1.4-1-1.9c-0.4-0.5-1-0.8-1.5-1c-0.6-0.2-1.3-0.3-2.2-0.4v-0.6
		h15.3v0.6c-0.9,0-1.6,0.2-2.2,0.4c-0.6,0.2-1.1,0.5-1.5,1c-0.5,0.5-0.8,1.2-1,2c-0.2,0.8-0.3,2-0.3,3.6v17.6c0,1.6,0.1,2.8,0.3,3.6
		c0.2,0.8,0.5,1.4,1,2c0.4,0.4,1,0.8,1.5,1c0.6,0.2,1.3,0.3,2.2,0.4v0.6H263v-0.6c0.9,0,1.7-0.2,2.2-0.4c0.6-0.2,1.1-0.5,1.5-1
		c0.5-0.5,0.8-1.2,1-1.9c0.2-0.8,0.3-2,0.3-3.6v-8.8h-17v8.8c0,1.6,0.1,2.8,0.3,3.6c0.2,0.8,0.5,1.4,1,2c0.4,0.4,0.9,0.8,1.5,1
		c0.6,0.2,1.3,0.3,2.2,0.4v0.6h-15.3v-0.6c0.9,0,1.7-0.2,2.2-0.4c0.6-0.2,1.1-0.5,1.5-1c0.5-0.5,0.9-1.2,1-1.9
		c0.2-0.8,0.3-2,0.3-3.6V49.7c0-1.6-0.1-2.9-0.3-3.6c-0.2-0.8-0.5-1.4-1-1.9c-0.4-0.5-0.9-0.8-1.5-1c-0.6-0.2-1.3-0.3-2.2-0.4v-0.6
		h15.3v0.6c-0.9,0-1.6,0.2-2.2,0.4c-0.6,0.2-1.1,0.5-1.5,1c-0.5,0.5-0.8,1.2-1,2c-0.2,0.8-0.3,2-0.3,3.6V57.3z"/>
	<g>
		<path d="M87.5,75.6c-0.2-1-0.3-2-0.3-3.1c-2,2-4.5,3.1-7.2,3.1c-2,0-3.7-0.5-4.9-1.5c-1.2-1-1.8-2.4-1.8-4.2v-8.5l0-1.9
			c0-1.1-0.1-1.9-0.2-2.4s-0.4-0.9-0.7-1.3c-0.5-0.4-1.3-0.8-2.5-1v-0.5h7.2v12.4c0,1.7,0.1,3,0.2,3.9c0.1,0.8,0.3,1.5,0.7,2.1
			c0.4,0.6,0.9,1,1.5,1.3c0.7,0.3,1.4,0.5,2.2,0.5c0.9,0,1.8-0.2,2.6-0.5c0.8-0.4,1.4-0.8,1.9-1.5c0.5-0.6,0.8-1.4,0.9-2.2
			c0.2-0.8,0.2-2.2,0.2-4.1v-4.8l0-1.8c0-1.1-0.1-1.9-0.2-2.4c-0.1-0.5-0.4-0.9-0.7-1.3c-0.5-0.4-1.3-0.8-2.5-1v-0.5h7.2v13.3
			c0,1.7,0,2.9,0.1,3.5s0.3,1.2,0.5,1.7c0.3,0.5,0.6,0.8,1,1c0.4,0.2,1,0.3,1.7,0.4v0.5L87.5,75.6z"/>
		<g>
			<path d="M70.1,42.1h9.5v0.2c-0.7,0.1-1.2,0.1-1.5,0.2c-0.5,0.1-0.8,0.4-0.8,0.7c0,0.2,0.1,0.4,0.2,0.7c0.2,0.3,0.5,0.7,0.9,1.2
				l3.9,4.6l4-4.8c0.6-0.7,0.9-1.2,0.9-1.6c0-0.4-0.3-0.6-0.8-0.8c-0.3-0.1-0.7-0.2-1.4-0.2v-0.2h6.8v0.2c-0.9,0.1-1.6,0.3-2.2,0.6
				c-0.7,0.3-1.5,1-2.4,2.1l-5.7,6.6h-1.3l-6.1-6.9c-0.9-1.1-1.6-1.7-2-1.9c-0.2-0.1-0.5-0.2-0.8-0.3c-0.3-0.1-0.7-0.1-1.2-0.1V42.1
				z"/>
		</g>
	</g>
</g>
</svg>
